<?xml version="1.0" encoding="UTF-8"?>
<svg version="1.1" xmlns="http://www.w3.org/2000/svg" width="2000" height="672">
<path d="M0 0 C1.02485856 -0.00467997 2.04971712 -0.00935994 3.10563201 -0.01418173 C6.5335003 -0.02612918 9.96096859 -0.01667463 13.38883972 -0.00723267 C15.85012037 -0.01129894 18.31139919 -0.01664113 20.77267456 -0.02316284 C26.76494483 -0.03542697 32.75705887 -0.03362269 38.74932305 -0.02492492 C43.63166549 -0.01813425 48.51397643 -0.01723767 53.39632225 -0.02049637 C54.44105204 -0.02118592 54.44105204 -0.02118592 55.50688749 -0.0218894 C56.92228575 -0.02284868 58.337684 -0.02382132 59.75308224 -0.02480717 C73.02871876 -0.0333623 86.30429316 -0.02353127 99.57991948 -0.00740607 C110.9176248 0.00594118 122.25523772 0.00371571 133.59294128 -0.01016235 C146.79343438 -0.02631333 159.99387266 -0.03247955 173.19437426 -0.02332556 C174.61021117 -0.02237008 176.02604808 -0.02142697 177.44188499 -0.02049637 C178.13824557 -0.02003354 178.83460615 -0.01957072 179.55206857 -0.01909386 C184.40658076 -0.01652809 189.26105763 -0.02082333 194.11556435 -0.02793503 C200.69430689 -0.03736117 207.27290531 -0.0303964 213.8516407 -0.01325226 C216.24504566 -0.00933907 218.63846542 -0.01033066 221.03186417 -0.01704025 C251.1562788 -0.09359052 281.1412979 3.40380732 309.69035339 13.38095093 C310.32811707 13.59300171 310.96588074 13.80505249 311.62297058 14.02352905 C327.77521124 19.39958531 342.56290638 27.52149623 355.69035339 38.38095093 C356.56047058 39.09895874 357.43058777 39.81696655 358.32707214 40.55673218 C380.47311413 59.6504866 395.22903665 88.46682803 398.69035339 117.38095093 C399.09931428 123.0759283 399.0836005 128.7749907 399.02653503 134.48153687 C399.00280761 137.01083112 399.00602191 139.53907217 399.01261902 142.06845093 C398.99469179 151.68939501 398.39041591 160.8890163 396.69035339 170.38095093 C397.87153748 171.01674072 397.87153748 171.01674072 399.07658386 171.66537476 C423.51358293 184.99561505 439.58139037 206.98426777 447.69035339 233.38095093 C450.41644044 243.26969804 451.83481597 252.93816599 451.89347839 263.17391968 C451.90049271 263.99379364 451.90750702 264.8136676 451.91473389 265.65838623 C451.93216925 268.29513081 451.93858793 270.93165079 451.94035339 273.56845093 C451.94136551 274.91977615 451.94136551 274.91977615 451.94239807 276.29840088 C451.92657893 289.57480393 451.41120192 302.35034949 448.69035339 315.38095093 C448.51342957 316.28973999 448.33650574 317.19852905 448.15422058 318.13485718 C437.90729408 370.73220705 414.51212556 420.80782078 369.13175964 451.77157593 C354.59265046 461.3557567 339.0504637 468.50443681 322.69035339 474.38095093 C321.62337219 474.76549438 321.62337219 474.76549438 320.53483582 475.1578064 C314.73563827 477.17374546 308.87845849 478.60008406 302.87785339 479.88095093 C301.87882996 480.09525757 300.87980652 480.30956421 299.85050964 480.53036499 C293.32198875 481.90011478 286.78386723 483.11905899 280.19035339 484.13095093 C279.45196228 484.24632202 278.71357117 484.36169312 277.95280457 484.4805603 C267.14125101 486.04213714 256.26154457 486.42648935 245.35441589 486.55673218 C244.45604004 486.56874664 243.55766418 486.58076111 242.63206482 486.59313965 C238.9179142 486.64156431 235.204113 486.68922752 231.4896698 486.70687866 C228.7357342 486.72242546 225.98302317 486.76260657 223.22941589 486.80673218 C222.40422455 486.80482376 221.5790332 486.80291534 220.72883606 486.8009491 C212.78501757 486.96640111 205.38413782 489.6871665 199.69035339 495.38095093 C196.23715789 500.64860111 194.78214975 505.21269083 193.74504089 511.38485718 C193.58405914 512.28386246 193.42307739 513.18286774 193.25721741 514.1091156 C191.02787819 526.78108273 189.09472867 539.505091 187.13850021 552.22152328 C186.58950542 555.78399797 186.03591977 559.3457588 185.48258972 562.90756226 C184.61000034 568.52670372 183.73899994 574.14608809 182.86955261 579.76571655 C180.82750418 592.95961041 178.77684387 606.15200808 176.65306091 619.33302307 C175.99228829 623.44619906 175.35846055 627.56257468 174.74230957 631.68266296 C174.43437829 633.72182207 174.11678015 635.75920385 173.79508972 637.79623413 C173.40989111 640.23883189 173.03960196 642.68386124 172.68913269 645.13168335 C171.29668455 653.70893297 168.35741395 661.37599072 161.75285339 667.31845093 C154.3251129 672.32080677 148.59962355 672.82084746 139.79167175 672.78500366 C138.0196917 672.79529854 138.0196917 672.79529854 136.21191406 672.80580139 C132.98877321 672.82091571 129.76599703 672.82257794 126.54283595 672.81685901 C123.84644936 672.81375844 121.1501146 672.81986894 118.45373541 672.82589775 C112.09172719 672.83991785 105.72985335 672.83840164 99.36784363 672.82699585 C92.81421719 672.81550588 86.26099957 672.82961037 79.70742697 672.85639232 C74.06899293 672.87856785 68.43068707 672.8851829 62.79221255 672.87931591 C59.42960181 672.87595085 56.06725335 672.87833144 52.70467949 672.89556694 C48.95602283 672.91043419 45.20826879 672.89983042 41.4596405 672.88265991 C40.35141937 672.89232788 39.24319824 672.90199585 38.10139465 672.91195679 C31.97533501 672.85316208 28.33682096 672.50212187 23.69035339 668.38095093 C19.5770215 663.60059224 18.84103387 659.48407828 18.69035339 653.38095093 C19.01266597 649.37724811 19.64410935 645.4463062 20.30754089 641.48641968 C20.48415253 640.37664261 20.66076416 639.26686554 20.84272766 638.12345886 C21.40587993 634.60323816 21.98556707 631.08596588 22.56535339 627.56845093 C22.9479106 625.18645735 23.32943145 622.80429709 23.70988464 620.42196655 C24.40938415 616.07159811 25.11058981 611.72155786 25.82658386 607.37387085 C26.04095596 606.068899 26.04095596 606.068899 26.25965881 604.73756409 C26.65257708 602.58765 27.14991777 600.49743868 27.69035339 598.38095093 C27.01651328 598.38371631 26.34267317 598.38648169 25.64841366 598.38933086 C9.23931255 598.45563378 -7.16974604 598.50525243 -23.57894993 598.53638744 C-31.51437763 598.55184497 -39.44971582 598.57291311 -47.38508606 598.60726929 C-54.30295035 598.63720585 -61.22074979 598.65653403 -68.13867706 598.66321641 C-71.80042451 598.66712148 -75.46198649 598.67627552 -79.12367439 598.6981411 C-83.21512647 598.72237398 -87.30625773 598.72291819 -91.39778137 598.7215271 C-93.2114772 598.73770584 -93.2114772 598.73770584 -95.06181335 598.75421143 C-101.90987062 598.72900249 -107.59932747 598.56486323 -113.01667786 593.91610718 C-119.76422989 584.92731878 -119.11610607 576.35162517 -117.5891571 565.52105713 C-117.0347466 561.90511156 -116.42411902 558.29958652 -115.80964661 554.69345093 C-115.53867949 553.05075678 -115.26902829 551.40784512 -115.00056458 549.76473999 C-114.56864323 547.12303213 -114.13572486 544.48151872 -113.69877625 541.84063721 C-112.04671814 531.85263778 -110.49323257 521.84957409 -108.93580627 511.84646606 C-106.06288914 493.41340149 -103.1380706 474.98876951 -100.18464661 456.56845093 C-95.19678284 425.45444734 -90.29749007 394.32723 -85.43464661 363.19345093 C-85.32681351 362.50306229 -85.21898041 361.81267365 -85.10787964 361.10136414 C-84.56352418 357.61614262 -84.01919059 354.13091769 -83.47486877 350.64569092 C-82.41988531 343.89076344 -81.36482221 337.1358484 -80.30964661 330.38095093 C-80.12361877 329.19003845 -79.93759094 327.99912598 -79.7459259 326.77212524 C-76.01412968 302.88550696 -72.26096408 279.00262803 -68.43464661 255.13095093 C-68.27135864 254.11217865 -68.10807068 253.09340637 -67.93983459 252.04376221 C-67.77521729 251.01671173 -67.61059998 249.98966125 -67.44099426 248.93148804 C-60.38961118 204.93663668 -53.43704656 160.92723175 -46.59577942 116.89926147 C-46.12028176 113.83975881 -45.64468312 110.78027187 -45.16902161 107.72079468 C-45.05282156 106.97325865 -44.93662151 106.22572262 -44.81690025 105.45553398 C-42.69273537 91.79495814 -40.5407955 78.13882966 -38.37562561 64.48469543 C-36.59899245 53.27170076 -34.85660943 42.05372032 -33.17835999 30.82553101 C-31.77847841 21.70681266 -29.24056734 13.07567681 -21.93464661 6.94345093 C-21.22566223 6.32598999 -20.51667786 5.70852905 -19.78620911 5.07235718 C-13.19232934 0.56896611 -7.80753543 -0.0549891 0 0 Z " fill="#003087" transform="translate(118.30964660644531,-0.380950927734375)"/>
<path d="M0 0 C21.50474546 8.96856896 37.96656915 28.21855625 46.94921875 49.36328125 C47.29597656 50.23339844 47.64273437 51.10351562 48 52 C48.35707031 52.88042969 48.71414063 53.76085937 49.08203125 54.66796875 C53.82823202 66.98675951 56.12767176 79.62745861 56.203125 92.79296875 C56.21013931 93.61284271 56.21715363 94.43271667 56.22438049 95.2774353 C56.24181586 97.91417988 56.24823453 100.55069986 56.25 103.1875 C56.25067474 104.08838348 56.25134949 104.98926697 56.25204468 105.91744995 C56.23622553 119.193853 55.72084852 131.96939856 53 145 C52.82307617 145.90878906 52.64615234 146.81757813 52.46386719 147.75390625 C42.21694068 200.35125612 18.82177217 250.42686985 -26.55859375 281.390625 C-41.09770294 290.97480578 -56.63988969 298.12348588 -73 304 C-74.0669812 304.38454346 -74.0669812 304.38454346 -75.15551758 304.77685547 C-80.95471512 306.79279453 -86.8118949 308.21913313 -92.8125 309.5 C-93.81152344 309.71430664 -94.81054688 309.92861328 -95.83984375 310.14941406 C-102.36836464 311.51916386 -108.90648616 312.73810806 -115.5 313.75 C-116.23839111 313.86537109 -116.97678223 313.98074219 -117.73754883 314.09960938 C-128.54910238 315.66118621 -139.42880882 316.04553842 -150.3359375 316.17578125 C-151.23431335 316.18779572 -152.13268921 316.19981018 -153.05828857 316.21218872 C-156.7724392 316.26061338 -160.4862404 316.30827659 -164.20068359 316.32592773 C-166.9546192 316.34147453 -169.70733023 316.38165564 -172.4609375 316.42578125 C-173.69872452 316.42291862 -173.69872452 316.42291862 -174.96151733 316.41999817 C-182.90533583 316.58545018 -190.30621558 319.30621558 -196 325 C-199.4531955 330.26765018 -200.90820365 334.8317399 -201.9453125 341.00390625 C-202.10629425 341.90291153 -202.267276 342.80191681 -202.43313599 343.72816467 C-204.6624752 356.4001318 -206.59562472 369.12414007 -208.55185318 381.84057236 C-209.10084798 385.40304704 -209.65443363 388.96480787 -210.20776367 392.52661133 C-211.08035306 398.14575279 -211.95135345 403.76513716 -212.82080078 409.38476562 C-214.86284921 422.57865948 -216.91350952 435.77105715 -219.03729248 448.95207214 C-219.6980651 453.06524813 -220.33189285 457.18162375 -220.94804382 461.30171204 C-221.25597511 463.34087114 -221.57357324 465.37825292 -221.89526367 467.4152832 C-222.28046229 469.85788096 -222.65075144 472.30291031 -223.0012207 474.75073242 C-224.39366884 483.32798204 -227.33293945 490.99503979 -233.9375 496.9375 C-241.3652405 501.93985584 -247.09072984 502.43989653 -255.89868164 502.40405273 C-257.6706617 502.41434761 -257.6706617 502.41434761 -259.47843933 502.42485046 C-262.70158019 502.43996478 -265.92435636 502.44162701 -269.14751744 502.43590808 C-271.84390403 502.43280751 -274.54023879 502.43891801 -277.23661798 502.44494683 C-283.5986262 502.45896693 -289.96050005 502.45745072 -296.32250977 502.44604492 C-302.8761362 502.43455495 -309.42935383 502.44865944 -315.98292643 502.4754414 C-321.62136046 502.49761692 -327.25966632 502.50423197 -332.89814085 502.49836498 C-336.26075158 502.49499992 -339.62310004 502.49738051 -342.9856739 502.51461601 C-346.73433056 502.52948326 -350.4820846 502.5188795 -354.23071289 502.50170898 C-355.33893402 502.51137695 -356.44715515 502.52104492 -357.58895874 502.53100586 C-363.71501838 502.47221115 -367.35353243 502.12117095 -372 498 C-376.11439048 493.21841106 -376.84399734 489.10336417 -377 483 C-376.68789893 479.00877338 -376.06969356 475.08906081 -375.41796875 471.140625 C-375.24372879 470.0332196 -375.06948883 468.92581421 -374.88996887 467.78485107 C-374.52134697 465.45772585 -374.14703777 463.1314951 -373.76733398 460.80615234 C-373.18735462 457.24910837 -372.62645636 453.68944233 -372.06835938 450.12890625 C-371.7068447 447.861801 -371.34425172 445.59486738 -370.98046875 443.328125 C-370.81266403 442.26660217 -370.64485931 441.20507935 -370.4719696 440.11138916 C-370.30872696 439.11975769 -370.14548431 438.12812622 -369.97729492 437.10644531 C-369.8366008 436.23868469 -369.69590668 435.37092407 -369.5509491 434.47686768 C-368.96304989 431.83388569 -368.02799053 429.50031744 -367 427 C-366.57096763 424.79302989 -366.2059666 422.57315993 -365.88671875 420.34765625 C-365.79233017 419.70487732 -365.69794159 419.06209839 -365.60069275 418.39984131 C-365.39759433 417.01397376 -365.19714399 415.62771603 -364.99908447 414.24111938 C-364.46215554 410.48687654 -363.90423413 406.73574677 -363.34765625 402.984375 C-363.17813446 401.83767082 -363.17813446 401.83767082 -363.00518799 400.6678009 C-361.96916047 393.70032554 -360.81071205 386.75599473 -359.625 379.8125 C-357.26016273 365.88813325 -355.14653681 351.92931371 -353.0425415 337.96350098 C-351.28584298 326.31282625 -349.48661491 314.67649268 -347.5 303.0625 C-344.91963965 287.97140007 -342.70735403 272.82713543 -340.49804688 257.67797852 C-339.21246146 248.89213566 -337.90375951 240.11325254 -336.390625 231.36328125 C-336.27415619 230.67731369 -336.15768738 229.99134613 -336.03768921 229.28459167 C-334.33402352 219.68340681 -329.91385584 212.86374834 -322 207 C-313.54310262 201.88585604 -304.3766079 202.46918615 -294.84858894 202.54471016 C-291.89942873 202.56695868 -288.9512757 202.5627547 -286.00205994 202.55223083 C-278.64946221 202.53074564 -271.29708769 202.54724769 -263.94451904 202.57373047 C-240.582503 202.65682496 -217.47634176 202.42813956 -194.24609375 199.71484375 C-192.91097087 199.56251376 -192.91097087 199.56251376 -191.54887581 199.4071064 C-181.25541591 198.20308052 -171.82559907 196.35822687 -162 193 C-160.27490554 192.52657007 -158.54621938 192.06579919 -156.8125 191.625 C-149.47055561 189.65285727 -142.28647042 187.20215435 -135.10400391 184.72021484 C-133.32982604 184.1129017 -131.54666731 183.53191818 -129.76171875 182.95703125 C-82.67460118 166.67923299 -47.95863582 127.05190358 -26.00073242 83.96118164 C-25.33074075 82.64816795 -24.65109963 81.34003579 -23.9621582 80.03686523 C-21.43661017 75.17939651 -19.5971151 70.27395982 -17.9375 65.0625 C-17.44661458 63.55338542 -16.95572917 62.04427083 -16.46484375 60.53515625 C-16.22548096 59.79217285 -15.98611816 59.04918945 -15.73950195 58.28369141 C-14.02942752 53.00272863 -12.25823684 47.7437221 -10.4375 42.5 C-9.18084641 38.75621953 -8.28074948 35.01528305 -7.52734375 31.140625 C-7 29 -7 29 -6.00390625 26.5859375 C-4.93249225 23.82610844 -4.44142353 21.2994309 -4 18.375 C-3.75443359 16.81458984 -3.75443359 16.81458984 -3.50390625 15.22265625 C-3.33761719 14.15917969 -3.17132813 13.09570312 -3 12 C-2.65391625 9.93612832 -2.30025859 7.87350618 -1.9375 5.8125 C-1.78152344 4.91144531 -1.62554688 4.01039063 -1.46484375 3.08203125 C-1 1 -1 1 0 0 Z " fill="#009BDD" transform="translate(514,170)"/>
<path d="M0 0 C1.77718171 -0.00542885 3.55435892 -0.01255576 5.33152771 -0.02124023 C10.14316246 -0.03941904 14.95445252 -0.03241973 19.76609302 -0.01972389 C24.84261104 -0.00952854 29.91910142 -0.01901122 34.99562073 -0.02526855 C43.54563616 -0.03254262 52.0955134 -0.02298088 60.64550781 -0.00390625 C70.43582452 0.01768777 80.22580566 0.0109387 90.0161137 -0.01121187 C98.48391216 -0.02958328 106.9516116 -0.03181486 115.41942364 -0.0214572 C120.44787325 -0.0153172 125.47616752 -0.01411281 130.50460625 -0.02760315 C174.06449122 -0.12850707 219.74195205 1.50838473 259.34594727 21.51757812 C258.76117473 32.34595225 257.49895634 43.42936316 253.34594727 53.51757812 C252.83516325 55.3842129 252.35749313 57.26013729 251.90844727 59.14257812 C249.59642719 68.57562005 247.09509431 77.54846482 243.34594727 86.51757812 C243.07266602 87.236875 242.79938477 87.95617187 242.51782227 88.69726562 C232.12865006 115.99245441 216.61703014 140.52574563 196.34594727 161.51757812 C195.54801758 162.36707031 194.75008789 163.2165625 193.92797852 164.09179688 C182.85464086 175.59867466 170.20738788 184.23353915 156.47973633 192.26269531 C154.52336748 193.41323717 152.58528145 194.58882141 150.65063477 195.77539062 C142.17564982 200.85265951 133.64979496 204.35035334 124.34594727 207.51757812 C123.10071289 207.94901123 123.10071289 207.94901123 121.83032227 208.38916016 C79.48978822 223.03766962 38.19326088 225.08884786 -6.27905273 225.01757812 C-13.65352947 225.0059469 -21.02754036 225.00727999 -28.40195847 225.04164124 C-31.30581936 225.04864766 -34.20890254 225.03220885 -37.11270142 225.01452637 C-47.20934226 225.0167342 -55.87282532 225.12489325 -64.23999023 231.48242188 C-64.83038086 232.13339844 -65.42077148 232.784375 -66.02905273 233.45507812 C-66.66584961 234.14472656 -67.30264648 234.834375 -67.95874023 235.54492188 C-69.91886093 237.82570747 -71.84923968 240.11116072 -73.65405273 242.51757812 C-72.87640349 235.11812773 -71.891447 227.75804474 -70.84155273 220.39257812 C-70.66487061 219.15193604 -70.48818848 217.91129395 -70.30615234 216.63305664 C-69.10216436 208.30765323 -67.72613205 200.02993076 -66.22729492 191.75341797 C-64.3627944 181.24885825 -62.92846901 170.68125756 -61.4921875 160.11108398 C-60.37265612 151.96726942 -58.99237109 143.95570018 -57.32568359 135.90332031 C-56.41973289 131.33635398 -55.78903483 126.76114046 -55.21655273 122.14257812 C-54.1609276 114.03566238 -52.96472749 105.96217415 -51.65405273 97.89257812 C-50.40312806 90.19010877 -49.17760155 82.48603351 -48.02905273 74.76757812 C-47.90731689 73.95168213 -47.78558105 73.13578613 -47.66015625 72.29516602 C-47.13468458 68.7669991 -46.61309364 65.23831156 -46.09545898 61.70898438 C-45.92916992 60.59394531 -45.76288086 59.47890625 -45.59155273 58.33007812 C-45.45620117 57.40839844 -45.32084961 56.48671875 -45.18139648 55.53710938 C-44.75617113 53.1023005 -44.24409856 50.74098121 -43.67749023 48.33789062 C-42.70409926 44.04878866 -42.15837686 39.77765163 -41.66674805 35.41040039 C-40.35517531 23.9951881 -38.74247824 14.05933924 -29.7149744 6.09783173 C-20.89739785 -0.66322441 -10.55140053 -0.05429632 0 0 Z " fill="#002169" transform="translate(253.654052734375,148.482421875)"/>
<path d="M0 0 C1.46860222 -0.01496269 1.46860222 -0.01496269 2.96687317 -0.03022766 C4.03530457 -0.03089233 5.10373596 -0.03155701 6.20454407 -0.03224182 C7.90082695 -0.0447271 7.90082695 -0.0447271 9.63137817 -0.0574646 C13.38537525 -0.08162822 17.13919804 -0.09035172 20.89326477 -0.09693909 C23.51808726 -0.10591212 26.14290924 -0.11503408 28.76773071 -0.1242981 C34.28834166 -0.14168199 39.80890877 -0.14852382 45.32954407 -0.15138245 C51.64478368 -0.15498356 57.95952698 -0.18461938 64.27461594 -0.22678703 C69.73578017 -0.26193386 75.1967843 -0.27693868 80.65806037 -0.27762848 C83.90128781 -0.27840881 87.14391203 -0.28905328 90.38704491 -0.31562614 C129.84719448 -0.6127536 166.29448165 9.35666578 195.10029602 37.21556091 C218.1534175 60.15952936 230.04190126 90.44623866 230.37275696 122.76829529 C230.46888165 165.21268743 216.5584386 204.4589173 188.13154602 236.27415466 C186.94372862 237.66971791 185.75618405 239.06551346 184.56904602 240.46165466 C160.75038365 267.39201876 127.83497887 287.16511893 93.00654602 296.08665466 C91.88191956 296.37886902 91.88191956 296.37886902 90.73457336 296.67698669 C73.74169801 300.77448266 56.61180875 300.61502493 39.24092102 300.64524841 C37.23922161 300.65195477 35.2375222 300.6586639 33.23582387 300.66568333 C26.97303024 300.68698097 20.71029035 300.69646472 14.44746399 300.69969177 C7.99864676 300.70335026 1.55029852 300.73345276 -4.8983748 300.77509636 C-10.46221225 300.8097584 -16.02589307 300.82523921 -21.58983779 300.82593781 C-24.90207621 300.82672973 -28.21372096 300.83781291 -31.52587128 300.86393547 C-35.20461947 300.89068176 -38.88204225 300.88607715 -42.56083679 300.8735199 C-44.1987191 300.89577133 -44.1987191 300.89577133 -45.86968994 300.91847229 C-53.22837813 300.8466598 -53.22837813 300.8466598 -56.55880737 297.86781311 C-57.95543866 295.10188793 -58.26296247 294.00031814 -57.77861023 290.98899841 C-57.64986511 290.11227478 -57.52112 289.23555115 -57.38847351 288.33226013 C-57.21686707 287.32308533 -57.04526062 286.31391052 -56.86845398 285.27415466 C-56.69298035 284.10384705 -56.51750671 282.93353943 -56.3367157 281.72776794 C-55.68634678 277.42618644 -54.99832808 273.13161988 -54.30595398 268.83665466 C-53.89855413 266.28849312 -53.49222762 263.7401618 -53.08596802 261.19181824 C-52.79702982 259.37963378 -52.50776686 257.56750109 -52.21820068 255.75541687 C-51.15788276 249.11408725 -50.11438235 242.47025626 -49.07939148 235.82493591 C-46.14173289 216.97593623 -43.18059924 198.13133793 -40.12236023 179.30149841 C-40.00458033 178.57627739 -39.88680042 177.85105637 -39.76545143 177.10385895 C-39.16601727 173.41361088 -38.56624006 169.72341863 -37.96632385 166.0332489 C-37.72536443 164.55105128 -37.48440781 163.0688532 -37.24345398 161.58665466 C-37.12409107 160.85242027 -37.00472816 160.11818588 -36.8817482 159.36170197 C-33.78436569 140.30415525 -30.75356869 121.24063928 -27.93437195 102.13963318 C-25.47829577 85.51242952 -22.84444052 68.91444444 -20.16067505 52.32258606 C-19.29858909 46.98337676 -18.45687525 41.64148701 -17.63301086 36.29624939 C-17.11506821 32.95012476 -16.58532104 29.60593765 -16.05302429 26.2620697 C-15.80807788 24.70648317 -15.56819573 23.15008938 -15.33378601 21.59288025 C-15.01132558 19.45558537 -14.67058981 17.32195534 -14.32548523 15.18821716 C-14.13961853 13.99148376 -13.95375183 12.79475037 -13.76225281 11.56175232 C-12.59359456 7.26315849 -10.91585949 3.56162347 -7.03779888 1.12298489 C-4.54663752 0.14823299 -2.67229479 0.01464192 0 0 Z M57.13154602 70.27415466 C56.57733721 72.11990819 56.57733721 72.11990819 56.26533508 74.27268982 C56.12445465 75.10597809 55.98357422 75.93926636 55.83842468 76.79780579 C55.69281097 77.71039154 55.54719727 78.62297729 55.39717102 79.56321716 C55.23874725 80.51697235 55.08032349 81.47072754 54.917099 82.4533844 C54.3969506 85.60067363 53.88900123 88.74979589 53.38154602 91.89915466 C53.02273334 94.08964984 52.6635172 96.28007896 52.3039093 98.47044373 C49.83147098 113.60584879 47.51783158 128.76272613 45.28315735 143.93479919 C43.66371518 154.90238666 41.91413478 165.84234392 40.06904602 176.77415466 C38.20140377 187.85426051 36.34833457 198.93575747 34.59202576 210.03416443 C34.37127331 211.42587075 34.14888525 212.81731879 33.92472839 214.20848083 C33.61667399 216.12286709 33.31537021 218.03833591 33.01435852 219.95384216 C32.75743225 221.57395203 32.75743225 221.57395203 32.49531555 223.22679138 C32.13155795 226.2740547 32.06661187 229.20845841 32.13154602 232.27415466 C36.1842412 232.32433089 40.23681121 232.3602331 44.28974915 232.38401794 C45.66282814 232.39395386 47.03588669 232.40750728 48.40888977 232.42503357 C60.49497993 232.57522621 71.61097395 231.51569613 83.06904602 227.58665466 C83.83337952 227.326828 84.59771301 227.06700134 85.38520813 226.79930115 C96.10613755 223.0206589 105.44824417 217.62922679 114.13154602 210.27415466 C114.79541321 209.75466248 115.4592804 209.23517029 116.14326477 208.69993591 C134.72421215 193.62345012 144.15018628 168.76049278 146.90449524 145.63304138 C148.72117528 126.75910319 146.81627671 107.91905922 134.92060852 92.38743591 C132.74526057 89.90397554 130.50331917 87.56955586 128.13154602 85.27415466 C127.54502258 84.69020935 126.95849915 84.10626404 126.35420227 83.50462341 C112.06802628 70.22688338 91.56928556 67.91142548 73.00654602 68.02415466 C71.6942804 68.01642029 70.38201477 68.00868591 69.02998352 68.00071716 C67.15826477 68.00458435 67.15826477 68.00458435 65.24873352 68.00852966 C64.1206427 68.01078552 62.99255188 68.01304138 61.83027649 68.0153656 C58.98180144 67.9996452 58.98180144 67.9996452 57.13154602 70.27415466 Z " fill="#003087" transform="translate(1420.8684539794922,334.72584533691406)"/>
<path d="M0 0 C1.05638168 -0.0071553 2.11276337 -0.01431061 3.20115662 -0.02168274 C4.94789421 -0.02571609 4.94789421 -0.02571609 6.72991943 -0.02983093 C8.56466576 -0.03968773 8.56466576 -0.03968773 10.43647766 -0.04974365 C14.50792686 -0.06953925 18.5793364 -0.0811678 22.65081787 -0.09111023 C24.05880502 -0.09516005 25.46679198 -0.09927704 26.87477875 -0.10346031 C33.50843419 -0.12254134 40.14207849 -0.13675131 46.77575612 -0.14507228 C54.3841974 -0.15477626 61.9923424 -0.18090133 69.60067964 -0.22157317 C75.50590037 -0.25203182 81.41103786 -0.26656993 87.31633544 -0.26985329 C90.8293533 -0.27217552 94.34205599 -0.28075288 97.8549881 -0.30631447 C128.36648799 -0.5165582 158.27922041 2.26855468 181.47113037 24.42451477 C189.34398791 32.86664047 193.82496303 42.12137542 197.01019287 53.14717102 C197.37950928 54.41367493 197.37950928 54.41367493 197.75628662 55.70576477 C203.86764809 82.04784006 196.34083702 111.29027636 183.01019287 134.14717102 C180.50792831 137.9573343 177.85103425 141.58418299 175.01019287 145.14717102 C174.31409912 146.07142883 173.61800537 146.99568665 172.90081787 147.94795227 C171.9649585 149.03656555 171.9649585 149.03656555 171.01019287 150.14717102 C170.35019287 150.14717102 169.69019287 150.14717102 169.01019287 150.14717102 C168.78202881 150.71822571 168.55386475 151.2892804 168.31878662 151.87763977 C160.63958726 165.195893 141.87644221 171.71480868 128.1473999 176.3886261 C125.74026145 177.24297602 123.37643246 178.18593468 121.01019287 179.14717102 C128.88914329 192.55630255 136.85010765 205.90716433 145.01019287 219.14717102 C145.65988037 220.20162415 146.30956787 221.25607727 146.97894287 222.34248352 C147.58738037 223.3299054 148.19581787 224.31732727 148.82269287 225.33467102 C152.38311525 231.11495189 155.91784654 236.91067288 159.44769287 242.70967102 C160.03316895 243.67147278 160.61864502 244.63327454 161.22186279 245.6242218 C164.2836712 250.65691948 167.34146721 255.69201679 170.39283752 260.73104858 C171.9300191 263.26950152 173.46807086 265.80742686 175.006073 268.34538269 C176.11317898 270.17332391 177.21880549 272.00215436 178.32440186 273.83100891 C179.00704102 274.95756897 179.68968018 276.08412903 180.39300537 277.24482727 C180.99515869 278.24006409 181.59731201 279.2353009 182.2177124 280.26069641 C183.48876743 282.30750704 184.82536973 284.31426127 186.20501709 286.289505 C188.48212686 289.89426155 188.63110119 291.95603984 188.01019287 296.14717102 C186.49577332 298.32675171 186.49577332 298.32675171 184.01019287 300.14717102 C181.12529513 300.53667081 178.62385367 300.68452559 175.74090576 300.64888 C174.90954605 300.65428299 174.07818634 300.65968597 173.22163391 300.66525269 C170.4750095 300.67775403 167.72943056 300.66123852 164.98284912 300.64326477 C163.07240239 300.64341974 161.16195535 300.64490839 159.25151062 300.64767456 C155.24750876 300.64905923 151.24386481 300.63649022 147.2399292 300.61372375 C142.11064356 300.5853582 136.98195351 300.58807035 131.85262394 300.60081387 C127.9071902 300.60777384 123.96189379 300.59997778 120.01647758 300.58755684 C118.12546757 300.58304409 116.23444281 300.582704 114.34343147 300.58662224 C111.69827266 300.58953708 109.05393011 300.57301396 106.40887451 300.55122375 C105.23902008 300.55797623 105.23902008 300.55797623 104.04553223 300.56486511 C99.53125706 300.50316838 96.56093862 300.00468976 93.01019287 297.14717102 C91.7616272 295.46058655 91.7616272 295.46058655 90.87298584 293.59150696 C90.52807098 292.88431015 90.18315613 292.17711334 89.82778931 291.44848633 C89.47290436 290.68389603 89.11801941 289.91930573 88.75238037 289.13154602 C88.36744415 288.33235245 87.98250793 287.53315887 87.58590698 286.70974731 C86.33859246 284.11187394 85.1118013 281.50487594 83.88519287 278.89717102 C83.0284064 277.10220418 82.17032812 275.30785341 81.31097412 273.51411438 C79.62194028 269.98313822 77.94069262 266.4486415 76.26702881 262.91035461 C74.4305345 259.02886031 72.57561206 255.15710858 70.70550537 251.29170227 C65.64113346 240.81506505 60.760068 230.26230757 55.93988037 219.67134094 C52.15816605 211.39336012 48.14984109 203.25072767 44.01019287 195.14717102 C43.00909559 193.14772004 42.00893551 191.1477992 41.01019287 189.14717102 C40.86771118 190.03631447 40.86771118 190.03631447 40.72235107 190.94342041 C40.25590653 193.85380255 39.78930398 196.76415933 39.32269287 199.67451477 C39.14457565 200.78582764 38.96645844 201.8971405 38.78294373 203.04212952 C37.78641785 209.25650294 36.78703853 215.47040015 35.78289795 221.68354797 C35.36507772 224.27036521 34.94735406 226.85719805 34.52972412 229.44404602 C34.42460825 230.09494894 34.31949238 230.74585186 34.21119118 231.41647911 C32.88392906 239.64098715 31.58146763 247.86892885 30.31216431 256.1026001 C29.61546658 260.6131502 28.90726971 265.12185457 28.19744873 269.63035583 C27.8653648 271.75959865 27.5388285 273.8897144 27.21795654 276.02067566 C26.77089087 278.98581245 26.3048172 281.94737989 25.83441162 284.90888977 C25.70862228 285.77721436 25.58283295 286.64553894 25.45323181 287.54017639 C24.652155 292.438732 23.66721968 295.53720563 20.01019287 299.14717102 C17.12740095 300.58856698 14.62632045 300.29042216 11.40496826 300.30830383 C10.72674515 300.31326874 10.04852203 300.31823364 9.3497467 300.323349 C7.10243726 300.33797405 4.85519837 300.34477263 2.60784912 300.35029602 C1.04847715 300.35604655 -0.5108948 300.36180429 -2.07026672 300.36756897 C-5.3412204 300.37807949 -8.61214949 300.38392203 -11.88311768 300.3874054 C-16.07769941 300.39289475 -20.27195729 300.4169317 -24.46643734 300.44537735 C-27.6877386 300.46398452 -30.90896149 300.46920826 -34.13031197 300.47074127 C-35.67690365 300.47377196 -37.22349381 300.48181448 -38.77003288 300.49492645 C-40.93200345 300.51194989 -43.0931779 300.5101165 -45.25518799 300.50361633 C-46.48603622 300.50726196 -47.71688446 300.51090759 -48.98503113 300.5146637 C-51.98980713 300.14717102 -51.98980713 300.14717102 -53.86352539 298.79216003 C-57.13065699 294.02035613 -55.80999234 288.31646141 -54.90777588 282.96748352 C-54.77837616 282.15236801 -54.64897644 281.3372525 -54.51565552 280.49743652 C-54.07821957 277.75421227 -53.62756486 275.01331758 -53.17730713 272.27217102 C-52.8597928 270.29471516 -52.54333586 268.31708927 -52.22784424 266.33930969 C-51.53264139 261.98512427 -50.83305324 257.6316704 -50.13140869 253.27851868 C-48.92233928 245.75276117 -47.74624108 238.22197785 -46.57574463 230.69013977 C-46.36808812 229.35447687 -46.16043126 228.01881403 -45.95277405 226.68315125 C-45.6377615 224.65672044 -45.32277742 222.63028522 -45.00787067 220.60383797 C-40.84982453 193.85196883 -36.60164633 167.11490776 -32.31019592 140.38412476 C-30.90035959 131.59859896 -29.50256305 122.81121052 -28.11480713 114.02217102 C-27.94462067 112.94473633 -27.94462067 112.94473633 -27.77099609 111.84553528 C-26.12325694 101.40667578 -24.49252553 90.96517732 -22.86552811 80.52306747 C-22.53503032 78.402196 -22.20438315 76.28134787 -21.87368774 74.1605072 C-21.65051115 72.72914148 -21.42733611 71.29777551 -21.2041626 69.8664093 C-21.09297781 69.15333429 -20.98179302 68.44025928 -20.867239 67.70557594 C-20.31794935 64.1819811 -19.76923013 60.6582992 -19.22180176 57.13441467 C-19.01183168 55.78303354 -18.8018505 54.43165413 -18.59185791 53.08027649 C-18.48901552 52.41837248 -18.38617313 51.75646847 -18.28021431 51.07450676 C-17.57590238 46.54708721 -16.8620106 42.02124038 -16.14508057 37.49580383 C-15.3823665 32.68102271 -14.6483656 27.86321158 -13.93609619 23.04072571 C-13.60281514 20.86521207 -13.26917681 18.68975312 -12.93511963 16.51435852 C-12.79661591 15.53121674 -12.65811218 14.54807495 -12.51541138 13.53514099 C-11.70347897 8.37042372 -10.91949588 4.90254747 -6.98980713 1.14717102 C-4.49161245 -0.10192632 -2.79631698 0.01297683 0 0 Z M60.01019287 64.14717102 C59.38915492 66.91588686 58.87514009 69.63506575 58.42425537 72.43232727 C58.28233261 73.27285645 58.14040985 74.11338562 57.9941864 74.97938538 C57.53327868 77.72155879 57.08399554 80.46549268 56.63519287 83.20967102 C56.32319576 85.08371044 56.01061326 86.9576525 55.69744873 88.83149719 C54.93041207 93.43454167 54.17329155 98.03914663 53.42016602 102.64448547 C53.04742803 104.91986857 52.67198804 107.19477755 52.29486084 109.46943665 C51.71592452 112.96540729 51.14217522 116.46214936 50.57269287 119.95967102 C50.40914307 120.95813049 50.24559326 121.95658997 50.0770874 122.98530579 C49.93255127 123.89079163 49.78801514 124.79627747 49.63909912 125.72920227 C49.51607422 126.4946637 49.39304932 127.26012512 49.26629639 128.04878235 C48.92942704 130.45660071 48.92942704 130.45660071 49.01019287 134.14717102 C68.70267104 134.40766746 89.03545751 133.77412997 103.90472412 119.30342102 C112.92167621 109.73596027 115.62706764 97.54001016 115.25238037 84.59248352 C114.63899788 78.39929897 113.49317585 73.01721732 108.76019287 68.70967102 C99.77293396 61.99766753 90.2986119 61.96064222 79.49822998 61.96186829 C77.31908037 61.95966737 75.14042591 61.94144177 72.96136475 61.92256165 C71.57790293 61.91963001 70.19443872 61.91764368 68.81097412 61.91670227 C67.55454102 61.91259338 66.29810791 61.9084845 65.00360107 61.9042511 C61.89426922 61.83136466 61.89426922 61.83136466 60.01019287 64.14717102 Z " fill="#003087" transform="translate(964.9898071289063,334.8528289794922)"/>
<path d="M0 0 C3.86109165 4.78775364 2.83655609 11.12533202 2.5625 16.9375 C2.03633851 21.73558443 1.27536075 26.48201374 0.48046875 31.2421875 C0.26290371 32.57820857 0.04589934 33.91432105 -0.170578 35.2505188 C-0.62255853 38.02647525 -1.08134284 40.80119383 -1.54516602 43.57519531 C-2.13674083 47.11677017 -2.71067736 50.66094393 -3.27959156 54.20622063 C-3.72290121 56.95614421 -4.1755789 59.70446309 -4.6310482 62.45239639 C-4.95033924 64.38909627 -5.26173123 66.32709314 -5.57295227 68.2651062 C-5.7729332 69.44718658 -5.97291412 70.62926697 -6.17895508 71.84716797 C-6.34994217 72.88130829 -6.52092926 73.91544861 -6.69709778 74.98092651 C-7.58240823 78.51614739 -8.80133383 82.30133383 -11.4375 84.9375 C-14.66476999 85.53514259 -16.3112026 85.72282591 -19.4375 84.9375 C-22.3950311 82.90066874 -25.01423028 80.62764612 -27.7109375 78.2578125 C-40.34855895 67.50316043 -57.90517057 63.34411036 -74.125 63.5 C-75.2598584 63.50902344 -76.3947168 63.51804687 -77.56396484 63.52734375 C-97.4658202 63.93413824 -114.83937176 70.4486332 -130.4375 82.9375 C-131.31664062 83.64132812 -132.19578125 84.34515625 -133.1015625 85.0703125 C-150.88693656 100.25050501 -162.0289658 121.88602456 -165.4375 144.9375 C-165.6730629 149.14408229 -165.66837365 153.34992105 -165.6875 157.5625 C-165.708125 158.67496094 -165.72875 159.78742188 -165.75 160.93359375 C-165.80064409 171.80941195 -163.73384655 181.53238702 -158.6875 191.1875 C-158.33316895 191.87078369 -157.97883789 192.55406738 -157.61376953 193.25805664 C-150.08754671 207.35834915 -137.62348719 215.2144743 -122.6484375 220.0078125 C-121.05902344 220.46800781 -121.05902344 220.46800781 -119.4375 220.9375 C-118.64601563 221.18242188 -117.85453125 221.42734375 -117.0390625 221.6796875 C-96.45878952 226.95112584 -72.90405459 221.57036601 -54.4375 211.9375 C-50.803292 209.77068919 -47.24333502 207.49365255 -43.78857422 205.05029297 C-40.74746497 202.97851238 -38.89475539 201.93312958 -35.16796875 201.96875 C-32.29282079 202.98883111 -31.24024743 203.53085329 -29.4375 205.9375 C-28.17630313 214.99744174 -30.02209225 224.40942174 -31.51953125 233.33984375 C-31.73716661 234.67442402 -31.95416917 236.00910762 -32.170578 237.34388733 C-32.62208926 240.11395361 -33.08087669 242.88268244 -33.54516602 245.65063477 C-34.13730817 249.18424435 -34.71109348 252.72055186 -35.27959156 256.2580328 C-35.72283942 259.00367766 -36.17552166 261.74770296 -36.6310482 264.49133492 C-36.95022237 266.42362261 -37.2616724 268.35718112 -37.57295227 270.29075623 C-37.7729332 271.46960892 -37.97291412 272.64846161 -38.17895508 273.86303711 C-38.34994217 274.89416122 -38.52092926 275.92528534 -38.69709778 276.98765564 C-39.88988104 281.73983611 -41.38054503 285.0801093 -45.20849609 288.18530273 C-48.51511189 289.97961557 -51.46436227 291.03109693 -55.1015625 291.97265625 C-56.37797607 292.30587891 -57.65438965 292.63910156 -58.96948242 292.98242188 C-60.33341992 293.32322626 -61.69776965 293.66238455 -63.0625 294 C-63.75856354 294.1745874 -64.45462708 294.3491748 -65.17178345 294.52905273 C-102.71633098 303.91370777 -143.41417416 304.9870601 -179.4375 288.9375 C-180.04480957 288.67130859 -180.65211914 288.40511719 -181.27783203 288.13085938 C-211.66692567 274.61103163 -234.28847944 249.34655857 -246.38623047 218.52001953 C-263.06767056 173.95930629 -259.1927241 126.52580577 -239.61010742 83.3894043 C-234.13478735 71.7922557 -227.28230008 61.07352796 -219.4375 50.9375 C-218.74011719 50.03515625 -218.04273438 49.1328125 -217.32421875 48.203125 C-191.49272023 15.71875386 -153.78742778 -4.14443089 -113.4375 -12.0625 C-112.64037598 -12.22621094 -111.84325195 -12.38992188 -111.02197266 -12.55859375 C-80.58739866 -18.60925459 -25.01168229 -21.16373116 0 0 Z " fill="#003087" transform="translate(923.4375,342.0625)"/>
<path d="M0 0 C1.58221234 -0.00514108 3.16441895 -0.01242378 4.74661255 -0.02168274 C9.03372835 -0.0401767 13.32022124 -0.02727297 17.60731101 -0.00759244 C22.09423776 0.00880346 26.58112536 -0.00001974 31.06806946 -0.00511169 C38.59935452 -0.0096302 46.130391 0.00622555 53.66162109 0.03417969 C62.37324409 0.06626546 71.08441966 0.06620163 79.79607457 0.04896492 C88.17572506 0.03311498 96.55521123 0.0398212 104.93485451 0.05690193 C108.50221941 0.06378084 112.06945293 0.06273153 115.63681602 0.05535698 C119.83373109 0.04770911 124.03013519 0.05977059 128.22696304 0.08720589 C129.76890991 0.09410533 131.31090437 0.09417102 132.85284996 0.08699036 C134.95400337 0.0783312 137.05356672 0.09418746 139.15458679 0.11643982 C140.33129786 0.11924674 141.50800894 0.12205366 142.72037792 0.12494564 C145.5871582 0.63110352 145.5871582 0.63110352 147.46775055 2.5115881 C150.95520375 9.11482224 148.30475367 19.07344986 147.16137695 26.15454102 C147.01311966 27.1037442 146.86486237 28.05294739 146.71211243 29.03091431 C146.39940795 31.01632038 146.08240421 33.0010538 145.76123047 34.98510742 C145.27284297 38.01737383 144.8052658 41.05238024 144.33911133 44.08813477 C144.03111105 46.02713494 143.72190871 47.96594464 143.41137695 49.90454102 C143.27374435 50.80667328 143.13611176 51.70880554 142.99430847 52.63827515 C142.06941872 58.224094 141.00834879 62.51256175 136.5871582 66.38110352 C132.52520897 68.91982179 128.69418772 68.77055291 124.07397461 68.75708008 C122.92956657 68.75988228 122.92956657 68.75988228 121.76203918 68.76274109 C120.10546837 68.76674375 118.44889204 68.7688198 116.79231644 68.76920319 C113.27008342 68.77261954 109.74803486 68.79398165 106.22586632 68.81443405 C99.66788665 68.85245752 93.11010446 68.88371714 86.55200195 68.8815918 C81.99008631 68.88080491 77.42884657 68.9041569 72.86710739 68.94347382 C71.1296327 68.9539381 69.39208004 68.95545466 67.65459061 68.94782257 C65.22202636 68.93820275 62.79151016 68.95937554 60.35913086 68.98754883 C59.64311203 68.97735214 58.9270932 68.96715546 58.18937683 68.95664978 C54.35191512 69.03625844 52.70174261 69.53976473 49.66415405 71.96112061 C47.0475521 75.32476839 46.62020844 77.73310501 46.0246582 81.94360352 C44.95678634 89.39312349 43.74456672 96.81518235 42.49731445 104.23657227 C42.22087097 105.8880426 42.22087097 105.8880426 41.93884277 107.57287598 C41.48907572 110.25908603 41.03849889 112.9451575 40.5871582 115.63110352 C41.58052185 115.62666229 42.5738855 115.62222107 43.59735107 115.61764526 C52.95555863 115.57711459 62.31374839 115.54712651 71.67202377 115.52747917 C76.48329067 115.51703876 81.29448675 115.5028748 86.10571289 115.48022461 C90.74817858 115.4585055 95.39057611 115.44653683 100.03308868 115.44134903 C101.80492475 115.4376516 103.57675706 115.43043153 105.34856415 115.4196434 C107.82889386 115.40514088 110.3089414 115.40312505 112.78930664 115.40405273 C113.52298462 115.39686218 114.2566626 115.38967163 115.01257324 115.38226318 C118.69107069 115.39716583 121.50107624 115.52179324 124.5871582 117.63110352 C126.63629527 120.24996102 126.58415312 121.70424983 126.44604492 125.06591797 C126.27458839 126.43962922 126.0889013 127.81161142 125.8918457 129.18188477 C125.79402802 129.92577957 125.69621033 130.66967438 125.59542847 131.43611145 C125.27416501 133.83674927 124.93273913 136.23385368 124.5871582 138.63110352 C124.42117126 139.81104889 124.42117126 139.81104889 124.25183105 141.01483154 C123.57387574 145.81415834 122.85084108 150.6048219 122.0925293 155.39208984 C121.8360193 157.02845241 121.58616258 158.66586999 121.3425293 160.30419922 C120.98278405 162.72163963 120.60361397 165.13532329 120.2199707 167.54907227 C120.11564728 168.27410446 120.01132385 168.99913666 119.90383911 169.74613953 C119.10771098 174.55971958 117.68069047 177.85789429 114.5871582 181.63110352 C110.9900363 184.08644931 107.60987731 183.88236033 103.34350586 183.88647461 C102.25980965 183.89190529 102.25980965 183.89190529 101.15422058 183.89744568 C99.58880499 183.90432733 98.02336547 183.90684742 96.45793533 183.9054985 C93.97743819 183.90453175 91.49737259 183.91749312 89.01693726 183.93447876 C81.96583394 183.98070478 74.91477506 184.0053532 67.86352539 184.01196289 C63.54692171 184.01698448 59.23076892 184.04126661 54.91431808 184.07728958 C53.27256353 184.08707237 51.63074683 184.08942782 49.98897171 184.08411789 C47.6886927 184.07702734 45.38975222 184.09436829 43.08959961 184.11694336 C41.12913193 184.12121841 41.12913193 184.12121841 39.12905884 184.12557983 C34.95803073 184.72089678 32.79375434 185.93052152 29.5871582 188.63110352 C28.64920742 191.46937768 28.12799481 193.70418404 27.7590332 196.61547852 C27.63908997 197.38990295 27.51914673 198.16432739 27.39556885 198.96221924 C27.01803817 201.43222782 26.67661136 203.90560278 26.3371582 206.38110352 C25.97571422 208.84066218 25.60691972 211.29901014 25.23590088 213.75714111 C25.00820842 215.28321381 24.78733113 216.81032553 24.574646 218.33856201 C24.4740387 219.04579407 24.3734314 219.75302612 24.26977539 220.48168945 C24.18572449 221.09139587 24.10167358 221.70110229 24.01507568 222.32928467 C23.36882207 225.80555944 22.46375887 229.20590587 21.5871582 232.63110352 C22.64094162 232.62444168 23.69472504 232.61777985 24.78044128 232.61091614 C34.71224837 232.55009618 44.64401767 232.5051266 54.57596874 232.475667 C59.68207245 232.46001236 64.7880258 232.43877763 69.89404297 232.40478516 C74.82181081 232.37218472 79.74943404 232.35424898 84.67730141 232.34647179 C86.55717559 232.34092952 88.43704187 232.33010685 90.31685448 232.31391335 C92.95034249 232.29212998 95.58323323 232.28913697 98.21679688 232.29052734 C98.99363327 232.27974152 99.77046967 232.26895569 100.57084656 232.25784302 C105.05989716 232.28348132 108.09145578 232.71549586 111.5871582 235.63110352 C113.30642408 242.21131204 112.15409761 248.33507722 111.0402832 254.95532227 C110.86841492 256.01975052 110.69654663 257.08417877 110.51947021 258.18086243 C110.15495506 260.41981721 109.78483601 262.65786609 109.40942383 264.89501953 C108.83765225 268.31564789 108.28937787 271.73947626 107.7434082 275.16430664 C107.38543349 277.34487552 107.02610474 279.52522264 106.6652832 281.70532227 C106.50263977 282.72623459 106.33999634 283.74714691 106.17242432 284.79899597 C104.32119647 295.63196952 104.32119647 295.63196952 99.39753056 299.23216343 C96.0115979 300.91760448 93.71307226 301.01094519 89.93858337 301.01878357 C88.95635602 301.02686188 88.95635602 301.02686188 87.95428568 301.03510338 C85.76783326 301.04937086 83.5819873 301.04228271 81.39550781 301.03515625 C79.8249208 301.04086037 78.25433793 301.0478248 76.6837616 301.05595398 C72.42353458 301.07389312 68.16351344 301.07271596 63.90325999 301.06701159 C60.34686631 301.06392172 56.79051228 301.07000974 53.23412424 301.07605034 C44.84615344 301.09009559 36.45828449 301.08853347 28.0703125 301.07714844 C19.41385162 301.06565873 10.75770025 301.07975712 2.10128015 301.10654491 C-5.33069101 301.12868331 -12.76256487 301.13534375 -20.19456667 301.1294685 C-24.6335866 301.12609427 -29.07240798 301.12854516 -33.51140022 301.14571953 C-37.68364189 301.16115775 -41.85542373 301.15726826 -46.02764702 301.13841438 C-47.55951218 301.13472021 -49.09141119 301.13786106 -50.62324524 301.14830017 C-52.7131141 301.16145607 -54.80144834 301.15001374 -56.89125061 301.13230896 C-58.06096437 301.13209968 -59.23067812 301.13189039 -60.43583775 301.13167477 C-64.06116094 300.52209126 -65.25583531 299.56844271 -67.4128418 296.63110352 C-67.9596238 290.67185672 -67.00924272 284.96546922 -66.04956055 279.08422852 C-65.901978 278.14897842 -65.75439545 277.21372833 -65.6023407 276.25013733 C-65.10766184 273.12614162 -64.60401146 270.00366126 -64.1003418 266.88110352 C-63.74456429 264.64574557 -63.38927112 262.41031049 -63.03442383 260.17480469 C-60.93128571 246.95924681 -58.78616154 233.75042503 -56.64331055 220.54125977 C-56.52622931 219.81953205 -56.40914806 219.09780434 -56.28851891 218.35420609 C-55.93228611 216.15841421 -55.57601457 213.96262862 -55.21972656 211.7668457 C-55.10181479 211.04013105 -54.98390303 210.3134164 -54.86241817 209.5646801 C-54.26426808 205.87846873 -53.66581947 202.19230619 -53.06686401 198.50622559 C-50.34118557 181.72794431 -47.6461543 164.94733466 -45.1628418 148.13110352 C-45.04739014 147.34954895 -44.93193848 146.56799438 -44.81298828 145.76275635 C-44.69834229 144.98664001 -44.58369629 144.21052368 -44.46557617 143.41088867 C-42.12699903 127.58971112 -39.60862029 111.79894033 -37.07173157 96.00849915 C-35.8939138 88.66536659 -34.7307298 81.31999783 -33.57310104 73.97366238 C-32.49512783 67.13308345 -31.41310918 60.29315149 -30.32873917 53.45358372 C-29.6469895 49.15208462 -28.96733279 44.85027643 -28.29241943 40.54769897 C-27.65106371 36.4596115 -27.00410169 32.3724488 -26.35306358 28.28589249 C-26.11114388 26.76093008 -25.87127087 25.23564143 -25.63355446 23.71001816 C-25.30460167 21.60085832 -24.96836294 19.49298134 -24.63037109 17.38525391 C-24.44274704 16.19670303 -24.25512299 15.00815216 -24.06181335 13.78358459 C-23.03306124 8.78625994 -21.85391471 4.85202909 -17.62273216 1.61052132 C-12.23922288 -0.77543633 -5.79727558 -0.04768108 0 0 Z " fill="#003087" transform="translate(1233.412841796875,334.368896484375)"/>
<path d="M0 0 C0.80661524 -0.0055344 1.61323048 -0.01106879 2.44428861 -0.0167709 C5.14451901 -0.03037388 7.84382454 -0.01541053 10.54403687 -0.00050354 C12.48077283 -0.00428679 14.4175061 -0.00978688 16.35423279 -0.01687622 C21.61234984 -0.03084544 26.87014022 -0.0196515 32.12823915 -0.00316501 C37.62681625 0.01067476 43.12537418 0.00422679 48.6239624 0.0007019 C57.8560005 -0.00200061 67.0879086 0.01148054 76.31991577 0.03465271 C87.00196566 0.06127841 97.68379841 0.06300468 108.36587012 0.05126435 C118.63402125 0.04049661 128.90209363 0.04666472 139.17023849 0.06081963 C143.54420197 0.06658656 147.91810796 0.06649123 152.2920723 0.06175423 C157.43850708 0.05699239 162.58470312 0.06705315 167.73109245 0.08870888 C169.62297065 0.09428717 171.51487175 0.09473254 173.40675163 0.08975601 C175.9827797 0.08382813 178.55807161 0.09625965 181.1340332 0.11352539 C181.88840089 0.10751535 182.64276859 0.1015053 183.4199959 0.09531313 C188.43912985 0.15678469 188.43912985 0.15678469 190.90259361 1.85066128 C196.1564575 10.20944815 190.71605191 28.658348 189.22396851 37.72972107 C188.74818154 40.65294045 188.30738757 43.58016699 187.86776733 46.50901794 C187.56712908 48.38435518 187.26446866 50.25936961 186.95956421 52.13401794 C186.83225418 53.00172821 186.70494415 53.86943848 186.57377625 54.76344299 C185.6500125 60.13083751 184.45652318 63.07207164 179.94003296 66.50120544 C176.29086291 68.24563937 173.35264149 68.76447981 169.32357788 68.8200531 C168.22281418 68.83992279 167.12205048 68.85979248 165.9879303 68.88026428 C164.81067886 68.89181549 163.63342743 68.9033667 162.42050171 68.91526794 C160.59994011 68.94431717 160.59994011 68.94431717 158.74259949 68.97395325 C154.87098185 69.03367116 150.99933435 69.080104 147.12753296 69.12620544 C144.50056696 69.16439232 141.87361339 69.20344447 139.24667358 69.24339294 C132.81123711 69.33936646 126.37572563 69.42443698 119.94003296 69.50120544 C119.80016968 70.39049744 119.6603064 71.27978943 119.51620483 72.19602966 C116.04749578 94.23794693 112.54489599 116.27425859 109.00839233 138.30540466 C106.35347919 154.85603043 103.73980077 171.41307974 101.12835789 187.97060585 C99.82848738 196.21100725 98.52493717 204.45082521 97.22113419 212.69060516 C96.4502211 217.56335522 95.67990289 222.43619936 94.90956306 227.30904007 C94.12997618 232.24008757 93.3497356 237.17103109 92.56903267 242.10190201 C92.18013666 244.55937841 91.7918267 247.01694684 91.40362549 249.47453308 C90.90692119 252.61881077 90.40777366 255.76268607 89.90686035 258.90629578 C88.89500258 265.27641352 87.89954665 271.6448143 87.0508728 278.03929138 C86.9242778 278.97288483 86.7976828 279.90647827 86.66725159 280.86836243 C86.45163749 282.49102879 86.24834221 284.11542005 86.0620575 285.74171448 C85.30861832 291.38907367 83.3377965 295.21105581 79.21937561 299.14463806 C76.13565133 300.97993903 73.88593142 300.88219348 70.30722046 300.88938904 C69.64981873 300.894646 68.99241699 300.89990295 68.31509399 300.90531921 C66.14816326 300.91849253 63.98197079 300.9097913 61.81503296 300.89964294 C60.30575418 300.90166446 58.79647636 300.90457656 57.28720093 300.90834045 C54.12646165 300.91276016 50.96597698 300.90634435 47.80526733 300.89231873 C43.7565077 300.87522677 39.70834469 300.88506988 35.65960693 300.90303612 C32.54374711 300.91388365 29.42802842 300.91042322 26.31216431 300.90265274 C24.81944711 300.9006534 23.32671705 300.90310068 21.83401489 300.9100914 C19.74661381 300.91772218 17.66017498 300.90608051 15.57284546 300.88938904 C14.38578003 300.88700226 13.1987146 300.88461548 11.97567749 300.88215637 C8.6121632 300.46006021 7.22925602 299.98530921 4.94003296 297.50120544 C3.60685656 293.6408634 4.0517378 290.36846451 4.67758179 286.38401794 C4.96019615 284.54421104 4.96019615 284.54421104 5.2485199 282.66723633 C5.4644948 281.3201929 5.68068298 279.97318366 5.89706421 278.62620544 C6.11838377 277.20895155 6.33898352 275.79158508 6.55891418 274.37411499 C7.15524221 270.54616224 7.76265419 266.72004316 8.37229919 262.89419174 C8.88172726 259.68812619 9.38454742 256.48103883 9.88735008 253.27392864 C13.62236418 229.45624205 17.50673867 205.66353868 21.4402771 181.87791443 C24.41477809 163.86721451 27.222565 145.83615839 29.93444824 127.78425598 C30.06777557 126.8967868 30.20110291 126.00931763 30.33847046 125.09495544 C30.46994476 124.21932953 30.60141907 123.34370361 30.73687744 122.44154358 C32.45303482 111.04533631 34.26431806 99.66407675 36.07577515 88.28269958 C36.19439911 87.5365741 36.31302307 86.79044861 36.4352417 86.02171326 C36.75173721 84.03242628 37.06923233 82.04329841 37.3868103 80.05418396 C37.93401319 76.5398664 38.44486099 73.02315145 38.94003296 69.50120544 C38.24956375 69.4953392 37.55909454 69.48947296 36.84770203 69.48342896 C29.66116786 69.41949464 22.47508148 69.33507422 15.28890991 69.23875427 C12.60696695 69.20385533 9.92509495 69.17621674 7.24301147 69.1547699 C3.38780863 69.12123399 -0.46675179 69.06891618 -4.32168579 69.01292419 C-5.520811 69.00653427 -6.71993622 69.00014435 -7.95539856 68.99356079 C-9.07618301 68.97376663 -10.19696747 68.95397247 -11.35171509 68.93357849 C-12.33544601 68.92247543 -13.31917694 68.91137238 -14.3327179 68.89993286 C-17.56472432 68.42740927 -19.46291173 67.46454301 -22.05996704 65.50120544 C-23.79056218 59.63897953 -22.6643069 53.95541925 -21.73184204 48.03636169 C-21.5821698 47.04422165 -21.43249756 46.0520816 -21.27828979 45.02987671 C-20.96026693 42.93891851 -20.63723015 40.84871746 -20.30947876 38.75926208 C-19.81243964 35.57952357 -19.33547625 32.39723314 -18.86074829 29.21409607 C-18.54814591 27.17550028 -18.23438194 25.13708221 -17.91934204 23.09886169 C-17.77857239 22.15591751 -17.63780273 21.21297333 -17.49276733 20.24145508 C-15.36665621 6.9073399 -15.36665621 6.9073399 -10.95769691 2.30830288 C-7.26811475 0.00738639 -4.2144272 -0.05397955 0 0 Z " fill="#003087" transform="translate(1808.0599670410156,334.49879455566406)"/>
<path d="M0 0 C0.65754776 -0.00540298 1.31509552 -0.01080597 1.99256897 -0.01637268 C4.15428431 -0.02882496 6.31465867 -0.01239639 8.47631836 0.00561523 C9.98416717 0.00546018 11.49201639 0.00397015 12.99986267 0.00120544 C16.15471081 -0.0001769 19.30910341 0.01235272 22.46386719 0.03515625 C26.50477792 0.06356532 30.54493347 0.06079501 34.58590031 0.04806614 C37.69748877 0.04110743 40.80890306 0.04889993 43.92046928 0.06132317 C45.41038787 0.06583411 46.90032518 0.06617757 48.39024544 0.06225777 C50.47279252 0.05934289 52.55430281 0.07586265 54.63671875 0.09765625 C55.82076797 0.10305923 57.0048172 0.10846222 58.2247467 0.11402893 C61.53284499 0.53744245 62.91708185 1.1604702 65.25366211 3.50170898 C66.76884701 8.40727197 65.957071 12.96373429 65.10131836 17.91967773 C64.96658615 18.74728104 64.83185394 19.57488434 64.69303894 20.42756653 C64.24268852 23.18293834 63.77919749 25.93594296 63.31616211 28.68920898 C62.99115826 30.66624027 62.66729058 32.64345862 62.34448242 34.62084961 C61.83563254 37.73707726 61.3260626 40.8531692 60.81307983 43.96871948 C59.14425246 54.1094589 57.56039287 64.26272673 55.98309326 74.41802979 C53.55527758 90.03362899 51.07933412 105.64108763 48.54663086 121.23999023 C48.43012239 121.95758263 48.31361393 122.67517502 48.19357491 123.41451263 C47.59914608 127.07487252 47.00434914 130.73517252 46.40939331 134.39544678 C42.26903474 159.86774934 38.24887864 185.35322801 34.40844727 210.87275696 C32.46287343 223.77805428 30.43398016 236.67016975 28.36213684 249.55575562 C27.58466204 254.39949531 26.82792818 259.24606994 26.08235168 264.09481812 C25.56629062 267.43250327 25.03780838 270.76814665 24.50662231 274.10345459 C24.2578291 275.68211133 24.01410039 277.26157592 23.77584839 278.84185791 C23.44626264 281.02256464 23.09822358 283.19958517 22.74584961 285.37670898 C22.45750244 287.2290918 22.45750244 287.2290918 22.16333008 289.11889648 C21.00366361 293.43138669 19.34869288 297.10319446 15.53341675 299.65003967 C12.48806169 300.78772151 9.87167125 300.77896799 6.62084961 300.80810547 C5.96344788 300.81642899 5.30604614 300.8247525 4.62872314 300.83332825 C2.46197544 300.85736672 0.29552888 300.86619115 -1.87133789 300.87280273 C-3.38061614 300.88177147 -4.88989348 300.89089336 -6.39916992 300.90016174 C-9.55983642 300.91663589 -12.72039716 300.92434937 -15.88110352 300.92724609 C-19.93008186 300.93263849 -23.9780666 300.9703589 -28.02676392 301.01599026 C-31.1426151 301.0457333 -34.25822573 301.05296898 -37.37420654 301.05397224 C-38.86696948 301.05817757 -40.35973293 301.07062464 -41.85235596 301.09148979 C-43.94015765 301.11836005 -46.0256389 301.11359616 -48.11352539 301.10107422 C-49.30059082 301.10614487 -50.48765625 301.11121552 -51.71069336 301.11643982 C-54.74633789 300.50170898 -54.74633789 300.50170898 -57.1431427 298.09832764 C-58.91467389 295.22906321 -59.16430306 294.29152431 -58.69555664 291.02124023 C-58.50292236 289.57225342 -58.50292236 289.57225342 -58.30639648 288.09399414 C-58.12157715 286.90854004 -57.93675781 285.72308594 -57.74633789 284.50170898 C-57.52573143 282.97244609 -57.30660835 281.4429688 -57.08862305 279.91333008 C-56.28154985 274.33297343 -55.42090506 268.76128891 -54.55883789 263.18920898 C-54.24085828 261.11851873 -53.92307137 259.04779889 -53.60546875 256.97705078 C-51.09878048 240.66374676 -48.53155795 224.3601703 -45.94213867 208.05982971 C-44.94473446 201.77251488 -43.96089388 195.48313591 -42.98071289 189.19311523 C-40.03394616 170.29744853 -37.06608436 151.40579468 -34.00024414 132.52905273 C-33.8824227 131.80356169 -33.76460125 131.07807064 -33.64320946 130.33059502 C-32.6829114 124.41865249 -31.72172745 118.50685394 -30.76052475 112.59505844 C-27.86898269 94.8071344 -25.00960677 77.01685498 -22.37133789 59.18920898 C-22.14032965 57.6324825 -21.90929195 56.07576039 -21.67822266 54.51904297 C-21.35103857 52.31302161 -21.02394481 50.10698696 -20.69703674 47.90092468 C-19.61049189 40.57367151 -18.51889534 33.2474286 -17.37664795 25.92861938 C-17.07115798 23.9562525 -16.77596174 21.98229963 -16.48120117 20.00830078 C-16.2967041 18.83823486 -16.11220703 17.66816895 -15.92211914 16.46264648 C-15.76654541 15.44992676 -15.61097168 14.43720703 -15.45068359 13.39379883 C-13.3287369 4.68094594 -9.16830564 0.00128581 0 0 Z " fill="#003087" transform="translate(1706.746337890625,334.498291015625)"/>
<path d="M0 0 C0.69836975 -0.00511093 1.3967395 -0.01022186 2.11627197 -0.01548767 C4.42859474 -0.02939452 6.74061881 -0.02842262 9.05297852 -0.02612305 C10.67847298 -0.0300164 12.30396645 -0.03435237 13.92945862 -0.03910828 C17.34835079 -0.04657794 20.76713982 -0.04627893 24.18603516 -0.04101562 C27.65296535 -0.0364227 31.11954171 -0.04314831 34.58642578 -0.06152344 C92.98322825 -0.36859088 92.98322825 -0.36859088 109.99438477 15.2746582 C119.05763439 24.54389077 122.3935129 36.10838722 122.30688477 48.7746582 C122.30124512 49.64759521 122.29560547 50.52053223 122.28979492 51.41992188 C121.87790855 73.79432341 114.0629354 94.44553961 97.99438477 110.2746582 C78.81458151 127.33424512 54.10978538 127.46025994 29.77441406 127.84570312 C29.08686539 127.86005905 28.39931671 127.87441498 27.69093323 127.88920593 C25.79497892 127.92871432 23.89882773 127.95841991 22.00268555 127.98754883 C18.8152497 128.05236924 18.8152497 128.05236924 15.99438477 130.2746582 C11.88708074 141.56023663 11.23554565 154.68250829 9.61938477 166.52172852 C9.25411128 169.18042483 8.87512849 171.83688971 8.49438477 174.4934082 C8.38803711 175.30177124 8.28168945 176.11013428 8.17211914 176.94299316 C7.53323073 181.33978772 6.7534023 184.64640938 3.99438477 188.2746582 C0.5839731 189.97986404 -3.31095063 189.45959708 -7.06420898 189.4777832 C-7.96430191 189.48348328 -8.86439484 189.48918335 -9.79176331 189.49505615 C-11.69742658 189.50451021 -13.60310623 189.51104174 -15.50878906 189.51489258 C-18.42794173 189.5246077 -21.34639325 189.55563087 -24.26538086 189.5871582 C-26.11498604 189.59368722 -27.96459627 189.59893809 -29.81420898 189.6027832 C-30.68927597 189.61513 -31.56434296 189.62747681 -32.46592712 189.64019775 C-33.28009598 189.63719666 -34.09426483 189.63419556 -34.93310547 189.63110352 C-36.006605 189.63657196 -36.006605 189.63657196 -37.10179138 189.64215088 C-39.62175508 189.15572552 -40.49567424 188.32762339 -42.00561523 186.2746582 C-42.60024112 178.77508123 -41.29573587 171.54650308 -40.09936523 164.15356445 C-39.89909729 162.88128494 -39.69882935 161.60900543 -39.49249268 160.298172 C-38.95069525 156.85735598 -38.40040981 153.41794803 -37.84843445 149.97875214 C-37.27117516 146.3726095 -36.70186315 142.76521202 -36.1315918 139.15795898 C-34.8715539 131.19742637 -33.59998775 123.23875968 -32.3263855 115.28038788 C-31.83104633 112.18310433 -31.33726713 109.08557254 -30.84350586 105.98803711 C-29.33257831 96.51052383 -27.81805667 87.03360248 -26.295578 77.55793762 C-24.05347597 63.60344421 -21.84686046 49.6435008 -19.65988159 35.68026733 C-19.33478251 33.61854093 -19.00314222 31.55793932 -18.67114258 29.49731445 C-18.18535033 26.46759221 -17.74172931 23.43401678 -17.31274414 20.39575195 C-17.07123832 18.77202526 -16.82954368 17.14832664 -16.58764648 15.5246582 C-16.48844406 14.7735376 -16.38924164 14.02241699 -16.28703308 13.24853516 C-15.56269484 8.52473324 -14.43017964 5.63276017 -11.00561523 2.2746582 C-7.41793035 -0.08246638 -4.22602413 0.01545136 0 0 Z M27.99438477 43.2746582 C27.31848558 46.18744863 26.80447099 48.97258127 26.38891602 51.9230957 C26.25998459 52.77263824 26.13105316 53.62218079 25.99821472 54.49746704 C25.72788433 56.29375506 25.46348618 58.09094442 25.20458984 59.88891602 C24.80912727 62.63409145 24.39661484 65.37626247 23.98071289 68.1184082 C23.71994492 69.86565474 23.46014723 71.61304641 23.20141602 73.3605957 C23.0795845 74.17845551 22.95775299 74.99631531 22.83222961 75.83895874 C22.28120477 79.68445041 21.84305633 83.37733879 21.99438477 87.2746582 C25.95257402 87.36286928 29.91050538 87.41545232 33.86938477 87.4621582 C34.97797852 87.48729492 36.08657227 87.51243164 37.22875977 87.53833008 C47.21406772 87.62643574 55.9270839 86.52225742 63.29907227 79.3293457 C68.38266375 73.16812654 69.33308449 66.71709748 69.43188477 58.9621582 C69.44219727 58.28032471 69.45250977 57.59849121 69.46313477 56.89599609 C69.36280996 51.23252125 67.74930945 48.08119831 63.86938477 44.0871582 C57.07768222 39.80543269 48.93009848 39.934578 41.11938477 39.9621582 C40.18352539 39.94604492 39.24766602 39.92993164 38.28344727 39.91333008 C37.38625977 39.91268555 36.48907227 39.91204102 35.56469727 39.91137695 C34.75790527 39.908396 33.95111328 39.90541504 33.11987305 39.90234375 C30.43373825 40.37286472 29.71656438 41.19669925 27.99438477 43.2746582 Z " fill="#009BDD" transform="translate(1238.005615234375,35.725341796875)"/>
<path d="M0 0 C1.04799271 -0.00810448 1.04799271 -0.00810448 2.11715698 -0.01637268 C4.41895498 -0.02883624 6.71949384 -0.0123607 9.02124023 0.00561523 C10.64387578 0.00545993 12.26651169 0.00396575 13.8891449 0.00120544 C17.29621734 -0.00017839 20.70286889 0.012356 24.10986328 0.03515625 C28.41318552 0.06320566 32.71579801 0.06061787 37.01917076 0.04846001 C92.91817048 -0.077997 92.91817048 -0.077997 111.47827148 17.08374023 C121.68277797 27.72854269 122.22211049 41.63551418 122.04077148 55.45483398 C121.39812484 75.77773867 112.77046045 96.54803676 97.98217773 110.62670898 C79.02604016 126.67423286 56.31203104 127.47238369 32.70947266 128.05395508 C30.65702814 128.10577128 28.60478033 128.16289415 26.55249023 128.22045898 C25.34471924 128.25075195 24.13694824 128.28104492 22.89257812 128.31225586 C20.34093761 128.46693698 18.19765826 128.75773985 15.76733398 129.50170898 C13.80187139 139.25216031 11.95890204 149.0064436 10.49389648 158.84545898 C10.38665756 159.55988159 10.27941864 160.2743042 10.16893005 161.01037598 C9.63354381 164.58696442 9.11115381 168.16480531 8.60644531 171.74584961 C8.40918089 173.08119642 8.21152563 174.41648557 8.01342773 175.75170898 C7.84512451 176.93249023 7.67682129 178.11327148 7.50341797 179.32983398 C6.38377912 184.15449335 4.89543424 186.74964215 0.76733398 189.50170898 C-2.24290242 189.72228665 -5.15831387 189.82976075 -8.17016602 189.83764648 C-9.04664795 189.84430328 -9.92312988 189.85096008 -10.82617188 189.8578186 C-12.67877097 189.86794086 -14.53140649 189.87263576 -16.3840332 189.87231445 C-19.22220607 189.87669285 -22.05883031 189.91303003 -24.89672852 189.95092773 C-26.69620236 189.95679489 -28.49568359 189.96076496 -30.29516602 189.96264648 C-31.14522217 189.97701752 -31.99527832 189.99138855 -32.87109375 190.00619507 C-38.66360577 189.96113007 -38.66360577 189.96113007 -41.296875 187.83520508 C-45.49484519 177.36711245 -39.41887496 159.09037914 -37.67016602 148.25170898 C-37.30887669 145.9836457 -36.94812892 143.71549608 -36.58789062 141.44726562 C-35.65736716 135.59798604 -34.71978518 129.74986516 -33.77941895 123.90216064 C-32.76825487 117.61337028 -31.76077829 111.32398804 -30.7532959 105.03460693 C-29.94309734 99.9775244 -29.13117842 94.92073173 -28.31567383 89.86450195 C-26.54143724 78.84001119 -24.81262361 67.80964676 -23.1406498 56.76917458 C-22.83571022 54.75757708 -22.52965913 52.74615203 -22.22319031 50.73478699 C-22.12271298 50.07522538 -22.02223566 49.41566378 -21.91871357 48.73611546 C-21.71675309 47.41048854 -21.51475167 46.08486787 -21.31270885 44.7592535 C-20.6292881 40.2690483 -19.95854509 35.77704102 -19.28955078 31.28466797 C-18.93118253 28.92726099 -18.57239804 26.56991723 -18.21313477 24.21264648 C-18.05716827 23.1440892 -17.90120178 22.07553192 -17.74050903 20.97459412 C-15.48542441 6.35697885 -15.48542441 6.35697885 -10.57525635 2.31318665 C-6.70983897 0.21836899 -4.37328147 0.00057872 0 0 Z M27.76733398 43.50170898 C27.09143479 46.41449941 26.57742021 49.19963205 26.16186523 52.15014648 C26.03293381 52.99968903 25.90400238 53.84923157 25.77116394 54.72451782 C25.50083355 56.52080584 25.2364354 58.3179952 24.97753906 60.1159668 C24.58207649 62.86114223 24.16956406 65.60331325 23.75366211 68.34545898 C23.49289414 70.09270552 23.23309645 71.84009719 22.97436523 73.58764648 C22.85253372 74.40550629 22.73070221 75.22336609 22.60517883 76.06600952 C22.05415399 79.91150119 21.61600555 83.60438957 21.76733398 87.50170898 C25.72552324 87.58992006 29.6834546 87.6425031 33.64233398 87.68920898 C34.75092773 87.7143457 35.85952148 87.73948242 37.00170898 87.76538086 C46.47199019 87.84894216 55.2640006 86.7544868 62.76733398 80.50170898 C67.98946653 74.53355751 69.80733963 66.00066832 70.14233398 58.18920898 C69.5621347 52.48391603 68.0637097 48.89068296 64.14233398 44.68920898 C57.62329683 39.79993112 48.67891731 40.16171399 40.89233398 40.18920898 C39.95647461 40.1730957 39.02061523 40.15698242 38.05639648 40.14038086 C37.15920898 40.13973633 36.26202148 40.1390918 35.33764648 40.13842773 C34.53085449 40.13544678 33.7240625 40.13246582 32.89282227 40.12939453 C30.20668747 40.5999155 29.4895136 41.42375003 27.76733398 43.50170898 Z " fill="#003087" transform="translate(759.232666015625,35.498291015625)"/>
<path d="M0 0 C0.79535156 0.19335938 1.59070312 0.38671875 2.41015625 0.5859375 C8.42622238 2.42783449 12.57133081 6.68409785 17 11 C17.226875 9.741875 17.45375 8.48375 17.6875 7.1875 C18.22083787 4.22989908 18.66060208 3.26235104 21.07348633 1.3972168 C24.68785835 -0.32840688 27.82884555 -0.43234721 31.75 -0.3984375 C32.48573242 -0.40130768 33.22146484 -0.40417786 33.97949219 -0.40713501 C35.52930474 -0.40916926 37.07914334 -0.40368415 38.62890625 -0.39111328 C40.99277493 -0.3750491 43.35493411 -0.3909822 45.71875 -0.41015625 C47.22917042 -0.4081737 48.73958978 -0.40432979 50.25 -0.3984375 C51.3033252 -0.40754654 51.3033252 -0.40754654 52.37792969 -0.4168396 C56.71465773 -0.35509488 59.75632881 0.01469454 63 3 C64.25346603 7.74936154 63.9701669 11.80296398 63.171875 16.60546875 C63.06717896 17.25449158 62.96248291 17.9035144 62.85461426 18.57220459 C62.49620435 20.77902947 62.12304816 22.98310592 61.75 25.1875 C61.48695929 26.7863761 61.22495554 28.38542307 60.96386719 29.98461914 C60.51857496 32.70738552 60.07172411 35.42985981 59.62091064 38.15171814 C58.2451279 46.45913375 56.91178734 54.77297125 55.58602142 63.08847618 C54.8481781 67.713462 54.10735586 72.33797155 53.36659622 76.96249104 C52.74673787 80.83255613 52.12781437 84.70276494 51.5111084 88.57333374 C50.92067345 92.27701684 50.32581773 95.97996609 49.7278595 99.68244171 C49.50567117 101.06267647 49.28496191 102.44315027 49.06584167 103.82387543 C48.41991754 107.89088556 47.73878382 111.94880901 47 116 C46.86235229 116.75660919 46.72470459 117.51321838 46.58288574 118.29275513 C45.89192126 121.3314216 44.95616662 123.04987587 42.88891602 125.40209961 C39.16821039 127.46007462 35.92488433 127.5938675 31.77734375 127.56640625 C30.99484756 127.57260483 30.21235138 127.57880341 29.40614319 127.58518982 C27.75799805 127.59227046 26.10978112 127.58914461 24.46166992 127.57641602 C21.94121025 127.56252045 19.42444489 127.59667465 16.90429688 127.63476562 C15.29947826 127.63571664 13.694655 127.63385896 12.08984375 127.62890625 C11.33871811 127.64216446 10.58759247 127.65542267 9.81370544 127.66908264 C6.02387329 127.6016427 4.33368341 127.30836025 1.51000977 124.69897461 C-0.39722568 121.29000325 -0.30160527 118.84546722 0 115 C-0.52207031 115.44730469 -1.04414062 115.89460938 -1.58203125 116.35546875 C-16.02579892 128.21908878 -32.70076242 131.59123805 -51 130 C-64.27857021 128.26348254 -75.50417862 123.04755568 -84.15234375 112.5703125 C-95.38813942 96.93996672 -97.53225456 80.81179411 -95.6015625 62.1484375 C-93.13919674 47.21434907 -86.46643029 32.07443869 -76 21 C-75.34 21 -74.68 21 -74 21 C-73.75507812 20.41734375 -73.51015625 19.8346875 -73.2578125 19.234375 C-67.41177978 8.84949701 -50.97330462 2.19387156 -39.9375 -0.9375 C-38.29722694 -1.31658533 -36.65177967 -1.67469195 -35 -2 C-33.88625 -2.226875 -32.7725 -2.45375 -31.625 -2.6875 C-20.63916226 -3.63455498 -10.7108112 -2.64984231 0 0 Z M-41.75390625 45.84765625 C-48.21866344 53.73822455 -50.79067477 62.71725679 -50.453125 72.84375 C-49.55601077 79.09261466 -47.00629472 83.99370528 -42.5625 88.4375 C-41.716875 88.953125 -40.87125 89.46875 -40 90 C-39.154375 90.556875 -38.30875 91.11375 -37.4375 91.6875 C-28.21256347 95.20974849 -17.70838567 94.70077865 -8.59375 91.03125 C0.64992749 86.3460984 7.32503752 79.09718372 10.578125 69.25 C11.99946432 61.66952363 12.59640775 51.37205793 8.39453125 44.67578125 C3.81081064 39.16761278 -0.72502538 35.07335691 -8 34 C-21.96947608 33.01003713 -31.97167981 35.54254911 -41.75390625 45.84765625 Z " fill="#009BDD" transform="translate(1444,98)"/>
<path d="M0 0 C0.79535156 0.19335938 1.59070313 0.38671875 2.41015625 0.5859375 C8.42622238 2.42783449 12.57133081 6.68409785 17 11 C17.226875 9.741875 17.45375 8.48375 17.6875 7.1875 C18.22083787 4.22989908 18.66060208 3.26235104 21.07348633 1.3972168 C24.68785835 -0.32840688 27.82884555 -0.43234721 31.75 -0.3984375 C32.48573242 -0.40130768 33.22146484 -0.40417786 33.97949219 -0.40713501 C35.52930474 -0.40916926 37.07914334 -0.40368415 38.62890625 -0.39111328 C40.99277493 -0.3750491 43.35493411 -0.3909822 45.71875 -0.41015625 C47.22917042 -0.4081737 48.73958978 -0.40432979 50.25 -0.3984375 C51.3033252 -0.40754654 51.3033252 -0.40754654 52.37792969 -0.4168396 C56.7445093 -0.35466987 59.52445916 0.32393155 63 3 C66.79657026 10.59314053 61.91186365 24.54113405 60.5625 32.8125 C60.02459653 36.14169457 59.48899272 39.47125849 58.953125 42.80078125 C58.80531082 43.71598541 58.65749664 44.63118958 58.50520325 45.5741272 C57.35542786 52.71691117 56.24381445 59.86528963 55.14332581 67.01579285 C54.37226642 72.02549849 53.5940121 77.03408006 52.81438351 82.04245853 C52.2573774 85.62347044 51.7039652 89.20496422 51.15847778 92.78775024 C50.5398178 96.84983849 49.90516422 100.90928307 49.26953125 104.96875 C49.08529602 106.19534836 48.90106079 107.42194672 48.71124268 108.68571472 C46.7650936 120.95038869 46.7650936 120.95038869 42.32250977 125.85009766 C38.90262907 127.54332146 35.57334961 127.42837207 31.83984375 127.3984375 C30.66041954 127.40274277 30.66041954 127.40274277 29.45716858 127.40713501 C27.79883095 127.40917242 26.14046911 127.40366512 24.48217773 127.39111328 C21.94265157 127.37503262 19.40471163 127.39098296 16.86523438 127.41015625 C15.25260065 127.40817418 13.63996792 127.40433125 12.02734375 127.3984375 C11.26791977 127.40451019 10.50849579 127.41058289 9.72605896 127.4168396 C4.49739442 127.34696383 4.49739442 127.34696383 2.01660156 125.61645508 C0.63552669 123.42046642 0.70069338 121.88405229 0.8125 119.3125 C0.85310547 118.10013672 0.85310547 118.10013672 0.89453125 116.86328125 C0.92933594 116.24839844 0.96414063 115.63351563 1 115 C0.40574219 115.44730469 -0.18851563 115.89460938 -0.80078125 116.35546875 C-17.13937827 128.2727347 -34.74168574 132.08662857 -54.65234375 129.53125 C-66.54944606 127.15465881 -77.54811846 121.26172746 -84.90625 111.4609375 C-95.72284081 95.19021827 -97.85997694 77.81109698 -94.80859375 58.703125 C-91.49494616 43.5275795 -83.75204606 27.48243444 -72 17 C-71.34 17 -70.68 17 -70 17 C-70 16.34 -70 15.68 -70 15 C-50.17330224 -2.31409781 -24.83546776 -6.14426601 0 0 Z M-42.3125 46.25 C-48.8158683 54.36114546 -50.98917248 64.84724358 -50 75 C-47.91821513 82.36544537 -44.06044558 86.75150937 -37.9375 91.25 C-30.62436323 95.15245476 -21.47033335 94.48397138 -13.60546875 92.79296875 C-3.72279959 89.78519988 3.5005882 83.05667427 8.625 74.1875 C12.576944 65.02617528 13.05234254 56.75135725 9.90234375 47.2578125 C7.47198965 41.17666674 2.74922702 37.78361085 -3 35 C-17.68608889 31.11607567 -31.9790165 35.24146481 -42.3125 46.25 Z " fill="#003087" transform="translate(965,98)"/>
<path d="M0 0 C0.73381897 -0.00570007 1.46763794 -0.01140015 2.22369385 -0.01727295 C3.7770443 -0.02671368 5.3304147 -0.03325325 6.88378906 -0.03710938 C9.24320153 -0.04678306 11.60173057 -0.0778005 13.9609375 -0.109375 C15.47395319 -0.11590889 16.98697508 -0.12115784 18.5 -0.125 C19.5472525 -0.1435202 19.5472525 -0.1435202 20.61566162 -0.16241455 C25.72586858 -0.1395415 29.13629776 0.69944182 33.515625 3.203125 C35.0402832 5.49389648 35.0402832 5.49389648 36.00390625 8.38671875 C36.39787598 9.54800293 36.7918457 10.70928711 37.19775391 11.90576172 C37.64131029 13.33690093 38.08016739 14.76950079 38.515625 16.203125 C38.78018494 17.05932434 39.04474487 17.91552368 39.31732178 18.79766846 C41.51254891 25.93428935 43.61398994 33.09736521 45.703125 40.265625 C46.64495755 43.49039608 47.58840762 46.71465654 48.53645325 49.93760681 C49.12231651 51.929801 49.70458153 53.92305787 50.28276062 55.91749573 C50.54676163 56.81620895 50.81076263 57.71492218 51.08276367 58.64086914 C51.42654305 59.8211544 51.42654305 59.8211544 51.77726746 61.02528381 C52.51658036 63.2059429 53.43706308 65.17161376 54.515625 67.203125 C54.9374707 66.56511963 55.35931641 65.92711426 55.79394531 65.26977539 C63.1758274 54.11784637 70.57171073 42.99135298 78.34326172 32.10595703 C81.61797522 27.50921707 84.78147024 22.85075366 87.890625 18.140625 C98.61019769 1.91162192 98.61019769 1.91162192 102.16235352 0.59082031 C105.49252706 0.04218295 108.80199804 0.02022252 112.16796875 0 C113.2736898 -0.00855011 113.2736898 -0.00855011 114.40174866 -0.01727295 C115.95751521 -0.02669766 117.51330149 -0.03324686 119.0690918 -0.03710938 C121.44159844 -0.04682778 123.81324283 -0.07787879 126.18554688 -0.109375 C127.70051571 -0.11590465 129.21549072 -0.12115527 130.73046875 -0.125 C131.4358226 -0.1373468 132.14117645 -0.1496936 132.86790466 -0.16241455 C137.67021221 -0.14082056 141.06300166 0.75050166 144.515625 4.203125 C144.95172454 8.95335929 144.21119776 11.3839479 141.48046875 15.25 C140.51270508 16.6421875 140.51270508 16.6421875 139.52539062 18.0625 C138.84154297 19.01640625 138.15769531 19.9703125 137.453125 20.953125 C136.79634766 21.8915625 136.13957031 22.83 135.46289062 23.796875 C133.49258186 26.60771943 131.50457417 29.40545224 129.515625 32.203125 C128.31989798 33.90634825 127.12582471 35.61073398 125.93359375 37.31640625 C123.70126283 40.50887612 121.46596111 43.69920246 119.2265625 46.88671875 C111.7172601 57.58354324 104.29808692 68.33791595 96.93066406 79.1328125 C92.43408293 85.71166136 87.88504316 92.25386684 83.30859375 98.77734375 C77.5004641 107.05667202 71.71238968 115.34665008 66.015625 123.703125 C59.26816193 133.59699866 52.41262404 143.41303382 45.515625 153.203125 C45.00773437 153.92564453 44.49984375 154.64816406 43.9765625 155.39257812 C42.59724411 157.3527592 41.2136747 159.30984532 39.828125 161.265625 C39.43020752 161.83128174 39.03229004 162.39693848 38.62231445 162.97973633 C33.78013256 169.78162248 33.78013256 169.78162248 29.515625 171.203125 C26.84304074 171.33578443 24.19730845 171.41528957 21.5234375 171.44140625 C20.74048309 171.449478 19.95752869 171.45754974 19.15084839 171.46586609 C17.49495648 171.47968666 15.83903633 171.49041787 14.18310547 171.49829102 C11.65667608 171.51551557 9.13155196 171.5594188 6.60546875 171.60351562 C4.99480126 171.61364227 3.38412269 171.62215846 1.7734375 171.62890625 C0.6450798 171.65516838 0.6450798 171.65516838 -0.506073 171.68196106 C-4.19150271 171.66678985 -6.3045157 171.31517188 -9.46044922 169.34912109 C-11.484375 167.203125 -11.484375 167.203125 -12.125 164.44140625 C-11.22671797 159.90070013 -8.99512544 157.03777731 -6.234375 153.390625 C-5.12854271 151.87917216 -4.02308457 150.36744552 -2.91796875 148.85546875 C-2.34804199 148.0857373 -1.77811523 147.31600586 -1.19091797 146.52294922 C2.00933118 142.17262484 5.10350629 137.74664583 8.19287109 133.31713867 C10.50776754 130.00656713 12.84925507 126.74360941 15.33984375 123.5625 C15.77208252 122.99241211 16.20432129 122.42232422 16.6496582 121.83496094 C17.8028206 120.31858528 18.9824306 118.82242239 20.1640625 117.328125 C23.27146163 110.14338713 18.03436898 100.42314703 15.62109375 93.41015625 C15.23688263 92.2815921 14.85267151 91.15302795 14.45681763 89.99026489 C13.63484808 87.57806034 12.81069094 85.16660028 11.98452759 82.75582886 C10.69391192 78.98873354 9.40997749 75.21939626 8.12768555 71.44946289 C4.24851753 60.05354658 0.33954041 48.668508 -3.6328125 37.3046875 C-4.53232044 34.71983897 -5.43119889 32.13477236 -6.32992554 29.5496521 C-7.15348031 27.1932568 -7.98910337 24.84138516 -8.82543945 22.48950195 C-9.32036896 21.07001403 -9.81478752 19.65034782 -10.30859375 18.23046875 C-10.73229248 17.03156006 -11.15599121 15.83265137 -11.5925293 14.59741211 C-12.55220773 10.94495955 -12.7864758 7.96313539 -12.484375 4.203125 C-9.25441338 -0.64181742 -5.35112724 0.03219985 0 0 Z " fill="#003087" transform="translate(1055.484375,97.796875)"/>
<path d="M0 0 C1.10572105 -0.00786278 1.10572105 -0.00786278 2.23377991 -0.0158844 C3.78954817 -0.02229444 5.34536496 -0.02098072 6.90112305 -0.01245117 C9.27415825 -0.00394567 11.64478089 -0.03270426 14.01757812 -0.06445312 C15.53255137 -0.06606551 17.04752885 -0.06548689 18.5625 -0.0625 C19.62053078 -0.07935097 19.62053078 -0.07935097 20.69993591 -0.09654236 C24.06774042 -0.04920583 26.32685261 0.42292918 29.33422852 1.96459961 C31.62254111 4.77067518 31.87895915 6.39246291 31.64434814 9.965271 C31.00417812 15.2911537 30.22530677 20.5831345 29.37109375 25.87890625 C29.16283522 27.19792886 28.95512459 28.51703808 28.7479248 29.83622742 C28.19440431 33.35072238 27.63346016 36.86399437 27.07106781 40.37707901 C26.48575069 44.04193424 25.90750985 47.70790541 25.32861328 51.3737793 C24.30748799 57.83430763 23.28104156 64.29397446 22.25186348 70.75322437 C21.37231529 76.27476691 20.49865477 81.79721882 19.62890625 87.3203125 C19.38729234 88.85441143 19.14567464 90.38850976 18.90405273 91.92260742 C18.73400223 93.00232315 18.73400223 93.00232315 18.56051636 94.10385132 C18.22232847 96.2481721 17.88298493 98.39230665 17.54321289 100.53637695 C16.12125694 109.51071906 14.71322821 118.48716267 13.3125 127.46484375 C12.95266637 129.76847794 12.59280299 132.07210748 12.23291016 134.37573242 C11.70382494 137.76234964 11.17524649 141.14904069 10.64862061 144.53604126 C9.70640315 150.59564916 8.75463278 156.65354892 7.78326416 162.70855713 C7.49876832 164.48828048 7.2173407 166.26849776 6.93939209 168.04925537 C6.56905101 170.41228233 6.18512215 172.77267128 5.796875 175.1328125 C5.58764404 176.43436279 5.37841309 177.73591309 5.1628418 179.0769043 C3.97135805 183.98307681 2.56128407 186.62450853 -1.65234375 189.43359375 C-4.30260303 189.641222 -6.84526575 189.73763681 -9.49609375 189.734375 C-10.26159546 189.73866013 -11.02709717 189.74294525 -11.8157959 189.74736023 C-13.43301403 189.75309892 -15.05025798 189.75360717 -16.66748047 189.74926758 C-19.14335028 189.74610524 -21.61802772 189.76957906 -24.09375 189.79492188 C-25.66536307 189.79719467 -27.23697937 189.79789846 -28.80859375 189.796875 C-29.54928101 189.80608475 -30.28996826 189.81529449 -31.05310059 189.82478333 C-33.89630511 189.7991474 -36.10152798 189.76153004 -38.58007812 188.28588867 C-41.84757665 182.64141889 -40.30085707 176.56356236 -39.28125 170.484375 C-39.12409515 169.49994919 -38.96694031 168.51552338 -38.80502319 167.50126648 C-38.28371449 164.2480653 -37.74921226 160.99717299 -37.21484375 157.74609375 C-36.84544545 155.45523756 -36.47705336 153.16421891 -36.10961914 150.87304688 C-35.34414262 146.10435599 -34.57431034 141.33639701 -33.80175781 136.56884766 C-32.70641505 129.79148612 -31.63849726 123.01008196 -30.58203125 116.2265625 C-30.33349648 114.6309549 -30.33349648 114.6309549 -30.0799408 113.00311279 C-29.74824068 110.87271201 -29.4166108 108.7423003 -29.08505249 106.61187744 C-26.14466855 87.74029147 -23.12174451 68.88313251 -20.02636719 50.03637695 C-18.77870605 42.42951971 -17.54236262 34.82245858 -16.3984375 27.19921875 C-16.12435059 25.37596069 -16.12435059 25.37596069 -15.84472656 23.51586914 C-15.52248505 21.34915335 -15.20494258 19.18172995 -14.89355469 17.01342773 C-13.10396444 4.91902479 -13.10396444 4.91902479 -10.05908203 1.80322266 C-6.75513278 -0.07699192 -3.70183843 -0.01536273 0 0 Z " fill="#009BDD" transform="translate(1550.65234375,35.56640625)"/>
</svg>
